<svg width="225" height="138" viewBox="0 0 225 138" fill="none" xmlns="http://www.w3.org/2000/svg">
<ellipse cx="68" cy="69" rx="68" ry="69" fill="#CB769E"/>
<path d="M218 69C218 103.29 190.418 131 156.5 131C122.582 131 95 103.29 95 69C95 34.7103 122.582 7 156.5 7C190.418 7 218 34.7103 218 69Z" stroke="#CB769E" stroke-width="14"/>
<path d="M173.128 84.136C173.213 84.3493 173.256 84.6693 173.256 85.096C173.256 85.48 173.256 85.8 173.256 86.056C173.256 86.3973 173.192 86.7173 173.064 87.016C172.936 87.3147 172.765 87.592 172.552 87.848C172.168 88.36 171.613 88.744 170.888 89C169.864 89.3413 168.904 89.512 168.008 89.512C167.539 89.5547 167.048 89.576 166.536 89.576C166.024 89.576 165.512 89.6187 165 89.704H164.744C161.459 89.7467 158.067 89.7467 154.568 89.704C153.715 89.6613 152.755 89.6613 151.688 89.704C150.621 89.7893 149.576 89.768 148.552 89.64C147.528 89.5547 146.589 89.32 145.736 88.936C144.925 88.5093 144.349 87.848 144.008 86.952C143.923 86.7387 143.859 86.5467 143.816 86.376C143.773 86.1627 143.752 85.9493 143.752 85.736C143.581 84.2853 143.517 82.856 143.56 81.448C143.603 80.04 143.624 78.6533 143.624 77.288L143.752 68.008V59.432C143.752 57.896 143.752 56.5307 143.752 55.336C143.795 54.1413 143.837 52.8187 143.88 51.368V51.048C143.923 50.6213 143.944 50.1947 143.944 49.768C143.987 49.3413 144.008 48.9147 144.008 48.488C144.093 47.5067 144.328 46.6747 144.712 45.992C144.968 45.352 145.416 44.84 146.056 44.456C146.611 44.072 147.272 43.88 148.04 43.88C148.339 43.88 148.616 43.9013 148.872 43.944C149.171 43.944 149.448 43.9653 149.704 44.008C149.96 44.0507 150.195 44.136 150.408 44.264C150.664 44.392 150.92 44.5627 151.176 44.776C151.432 45.0747 151.667 45.4373 151.88 45.864C152.051 46.3333 152.157 46.8027 152.2 47.272C152.243 47.5707 152.285 47.848 152.328 48.104C152.371 48.36 152.392 48.616 152.392 48.872C152.307 49.128 152.264 49.384 152.264 49.64C152.264 49.896 152.264 50.1307 152.264 50.344V51.496L152.008 81.64L164.68 81.768H167.688C167.944 81.768 168.221 81.7893 168.52 81.832C168.819 81.832 169.117 81.8533 169.416 81.896C169.757 81.9387 170.056 81.9813 170.312 82.024C170.568 82.0667 170.824 82.1307 171.08 82.216C171.549 82.344 171.933 82.5573 172.232 82.856C172.701 83.2827 173 83.7093 173.128 84.136Z" fill="#CB769E"/>
<path d="M79.128 84.136C79.2133 84.3493 79.256 84.6693 79.256 85.096C79.256 85.48 79.256 85.8 79.256 86.056C79.256 86.3973 79.192 86.7173 79.064 87.016C78.936 87.3147 78.7653 87.592 78.552 87.848C78.168 88.36 77.6133 88.744 76.888 89C75.864 89.3413 74.904 89.512 74.008 89.512C73.5387 89.5547 73.048 89.576 72.536 89.576C72.024 89.576 71.512 89.6187 71 89.704H70.744C67.4587 89.7467 64.0667 89.7467 60.568 89.704C59.7147 89.6613 58.7547 89.6613 57.688 89.704C56.6213 89.7893 55.576 89.768 54.552 89.64C53.528 89.5547 52.5893 89.32 51.736 88.936C50.9253 88.5093 50.3493 87.848 50.008 86.952C49.9227 86.7387 49.8587 86.5467 49.816 86.376C49.7733 86.1627 49.752 85.9493 49.752 85.736C49.5813 84.2853 49.5173 82.856 49.56 81.448C49.6027 80.04 49.624 78.6533 49.624 77.288L49.752 68.008V59.432C49.752 57.896 49.752 56.5307 49.752 55.336C49.7947 54.1413 49.8373 52.8187 49.88 51.368V51.048C49.9227 50.6213 49.944 50.1947 49.944 49.768C49.9867 49.3413 50.008 48.9147 50.008 48.488C50.0933 47.5067 50.328 46.6747 50.712 45.992C50.968 45.352 51.416 44.84 52.056 44.456C52.6107 44.072 53.272 43.88 54.04 43.88C54.3387 43.88 54.616 43.9013 54.872 43.944C55.1707 43.944 55.448 43.9653 55.704 44.008C55.96 44.0507 56.1947 44.136 56.408 44.264C56.664 44.392 56.92 44.5627 57.176 44.776C57.432 45.0747 57.6667 45.4373 57.88 45.864C58.0507 46.3333 58.1573 46.8027 58.2 47.272C58.2427 47.5707 58.2853 47.848 58.328 48.104C58.3707 48.36 58.392 48.616 58.392 48.872C58.3067 49.128 58.264 49.384 58.264 49.64C58.264 49.896 58.264 50.1307 58.264 50.344V51.496L58.008 81.64L70.68 81.768H73.688C73.944 81.768 74.2213 81.7893 74.52 81.832C74.8187 81.832 75.1173 81.8533 75.416 81.896C75.7573 81.9387 76.056 81.9813 76.312 82.024C76.568 82.0667 76.824 82.1307 77.08 82.216C77.5493 82.344 77.9333 82.5573 78.232 82.856C78.7013 83.2827 79 83.7093 79.128 84.136Z" fill="#1E1E1E"/>
</svg>
